0
SECTION
2
HEADER
9
$INSUNITS
70
4
9
$ACADVER
1
AC1014
9
$HANDSEED
5
FFFF
0
ENDSEC
0
SECTION
2
TABLES
0
TABLE
2
VPORT
5
8
100
AcDbSymbolTable
0
ENDTAB
0
TABLE
2
LTYPE
5
5
100
AcDbSymbolTable
0
LTYPE
5
14
100
AcDbSymbolTableRecord
100
AcDbLinetypeTableRecord
2
BYBLOCK
70
0
0
LTYPE
5
15
100
AcDbSymbolTableRecord
100
AcDbLinetypeTableRecord
2
BYLAYER
70
0
0
ENDTAB
0
TABLE
2
LAYER
5
2
100
AcDbSymbolTable
70
2
0
LAYER
5
50
100
AcDbSymbolTableRecord
100
AcDbLayerTableRecord
2
0
70
0
6
CONTINUOUS
0
ENDTAB
0
TABLE
2
STYLE
5
3
100
AcDbSymbolTable
70
1
0
STYLE
5
11
100
AcDbSymbolTableRecord
100
AcDbTextStyleTableRecord
2
STANDARD
70
0
0
ENDTAB
0
TABLE
2
VIEW
5
6
100
AcDbSymbolTable
70
0
0
ENDTAB
0
TABLE
2
UCS
5
7
100
AcDbSymbolTable
70
0
0
ENDTAB
0
TABLE
2
APPID
5
9
100
AcDbSymbolTable
70
2
0
APPID
5
12
100
AcDbSymbolTableRecord
100
AcDbRegAppTableRecord
2
ACAD
70
0
0
ENDTAB
0
TABLE
2
DIMSTYLE
5
A
100
AcDbSymbolTable
70
1
0
ENDTAB
0
TABLE
2
BLOCK_RECORD
5
1
100
AcDbSymbolTable
70
1
0
BLOCK_RECORD
5
1F
100
AcDbSymbolTableRecord
100
AcDbBlockTableRecord
2
*MODEL_SPACE
0
BLOCK_RECORD
5
1B
100
AcDbSymbolTableRecord
100
AcDbBlockTableRecord
2
*PAPER_SPACE
0
ENDTAB
0
ENDSEC
0
SECTION
2
BLOCKS
0
BLOCK
5
20
100
AcDbEntity
100
AcDbBlockBegin
2
*MODEL_SPACE
0
ENDBLK
5
21
100
AcDbEntity
100
AcDbBlockEnd
0
BLOCK
5
1C
100
AcDbEntity
100
AcDbBlockBegin
2
*PAPER_SPACE
0
ENDBLK
5
1D
100
AcDbEntity
100
AcDbBlockEnd
0
ENDSEC
0
SECTION
2
ENTITIES
0
LINE
5
100
100
AcDbEntity
8
0
100
AcDbLine
10
29.774785897159859
20
-19.725325255252585
30
0
11
49.492740244702766
21
1.9763532524062777
31
0
0
LINE
5
101
100
AcDbEntity
8
0
100
AcDbLine
10
-12.429180185155957
20
26.369973771193678
30
0
11
-28.062011854666302
21
40.755391684748538
31
0
0
LINE
5
102
100
AcDbEntity
8
0
100
AcDbLine
10
-27.605825441839791
20
48.378277678554696
30
0
11
-28.062011854666302
21
40.755391684748538
31
0
0
LINE
5
103
100
AcDbEntity
8
0
100
AcDbLine
10
42.979954608678028
20
54.14116081478565
30
0
11
43.9277957145
21
36.851406416766729
31
0
0
LINE
5
104
100
AcDbEntity
8
0
100
AcDbLine
10
-26.275776282620456
20
71.330247733475943
30
0
11
-42.976922184524767
21
68.631717606779688
31
0
0
LINE
5
105
100
AcDbEntity
8
0
100
AcDbLine
10
28.279953532340592
20
39.74562458216581
30
0
11
43.9277957145
21
36.851406416766729
31
0
0
LINE
5
106
100
AcDbEntity
8
0
100
AcDbLine
10
-10.542756429286086
20
57.86508146254441
30
0
11
-26.27577628262042
21
71.330247733475943
31
0
0
LINE
5
107
100
AcDbEntity
8
0
100
AcDbLine
10
11.798145714674355
20
57.809689519067163
30
0
11
26.64220774305431
21
70.387050042984043
31
0
0
LINE
5
108
100
AcDbEntity
8
0
100
AcDbLine
10
-8.6748874319884095
20
89.0504050358782
30
0
11
-0.99798260061710664
21
102.24462428596418
31
0
0
LINE
5
109
100
AcDbEntity
8
0
100
AcDbLine
10
-10.542756429286086
20
57.86508146254441
30
0
11
-27.605825441839791
21
48.378277678554696
31
0
0
LINE
5
110
100
AcDbEntity
8
0
100
AcDbLine
10
27.782115628774299
20
48.818798410410118
30
0
11
42.979954608678028
21
54.14116081478565
31
0
0
LINE
5
111
100
AcDbEntity
8
0
100
AcDbLine
10
26.094320725589419
20
80.36302727252442
30
0
11
10.084940264924676
21
89.003891994071083
31
0
0
LINE
5
112
100
AcDbEntity
8
0
100
AcDbLine
10
10.084940264924676
20
89.003891994071083
30
0
11
2.4735568057867141
21
102.23601696503594
31
0
0
LINE
5
113
100
AcDbEntity
8
0
100
AcDbLine
10
-26.27577628262042
20
71.330247733475943
30
0
11
-25.760212836180862
21
79.93792467605688
31
0
0
LINE
5
114
100
AcDbEntity
8
0
100
AcDbLine
10
32.228020950573899
20
-75.83418165433315
30
0
11
32.224885785059278
21
-73.628721170407744
31
0
0
LINE
5
115
100
AcDbEntity
8
0
100
AcDbLine
10
26.64220774305431
20
70.387050042984043
30
0
11
42.266827556259784
21
68.751778926388468
31
0
0
LINE
5
116
100
AcDbEntity
8
0
100
AcDbLine
10
11.798145714674355
20
57.809689519067163
30
0
11
27.782115628774299
21
48.818798410410118
31
0
0
LINE
5
117
100
AcDbEntity
8
0
100
AcDbLine
10
27.782115628774299
20
48.818798410410118
30
0
11
28.279953532340592
21
39.74562458216581
31
0
0
LINE
5
118
100
AcDbEntity
8
0
100
AcDbLine
10
26.094320725589419
20
80.36302727252442
30
0
11
41.461487709380265
21
83.417081447630494
31
0
0
ARC
5
119
100
AcDbEntity
8
0
100
AcDbCircle
10
61.057506461851148
20
-45.310795832011465
30
0
40
40.413177437102775
100
AcDbArc
50
140.7209981987944
51
224.48401064488044
0
LINE
5
120
100
AcDbEntity
8
0
100
AcDbLine
10
26.64220774305431
20
70.387050042984043
30
0
11
26.094320725589419
21
80.36302727252442
31
0
0
LINE
5
121
100
AcDbEntity
8
0
100
AcDbLine
10
32.224885785059278
20
-73.628721170407744
30
0
11
48.877568452880013
21
-63.447160230541627
31
0
0
LINE
5
122
100
AcDbEntity
8
0
100
AcDbLine
10
-56.556765783923751
20
-66.057989341513547
30
0
11
-36.245366813107722
21
-56.460630267203243
31
0
0
LINE
5
123
100
AcDbEntity
8
0
100
AcDbLine
10
-18.092420193198571
20
-68.181610081724713
30
0
11
-8.6748874319884095
21
89.0504050358782
31
0
0
LINE
5
124
100
AcDbEntity
8
0
100
AcDbLine
10
13.528369549305772
20
26.305614726136586
30
0
11
28.279953532340592
21
39.74562458216581
31
0
0
LINE
5
125
100
AcDbEntity
8
0
100
AcDbLine
10
19.239339274456579
20
-77.680247542162874
30
0
11
10.084940264924676
21
89.003891994071083
31
0
0
LINE
5
126
100
AcDbEntity
8
0
100
AcDbLine
10
-27.605825441839791
20
48.37827767855471
30
0
11
-43.701267546541075
21
55.048160102062582
31
0
0
LINE
5
127
100
AcDbEntity
8
0
100
AcDbLine
10
-25.760212836180862
20
79.937924676056866
30
0
11
-42.048984920646291
21
84.125802903946592
31
0
0
LINE
5
128
100
AcDbEntity
8
0
100
AcDbLine
10
-53.274575567977713
20
-12.642854704970121
30
0
11
-31.42715596627724
21
8.2243599609547662
31
0
0
LINE
5
129
100
AcDbEntity
8
0
100
AcDbLine
10
-36.498136116099374
20
-60.109965211106541
30
0
11
-36.245366813107722
21
-56.460630267203243
31
0
0
LINE
5
130
100
AcDbEntity
8
0
100
AcDbLine
10
29.774785897159859
20
-19.725325255252585
30
0
11
28.356553460299558
21
11.128268179902436
31
0
0
ARC
5
131
100
AcDbEntity
8
0
100
AcDbCircle
10
14.303521520304017
20
-30.375447992100977
30
0
40
49.678451545191791
100
AcDbArc
50
-8.6720608576864144
51
2.8829956813696356
0
LINE
5
132
100
AcDbEntity
8
0
100
AcDbLine
10
2.4735568057867141
20
102.23601696503594
30
0
11
-0.99800394157419703
21
102.23601696503594
31
0
0
CIRCLE
5
133
100
AcDbEntity
8
0
100
AcDbCircle
10
0.72715787236461438
20
97.953296605262125
30
0
40
0.99999999999999489
0
LINE
5
134
100
AcDbEntity
8
0
100
AcDbLine
10
28.356553460299558
20
11.128268179902436
30
0
11
13.528369549305772
21
26.305614726136586
31
0
0
CIRCLE
5
135
100
AcDbEntity
8
0
100
AcDbCircle
10
0.71197676740247573
20
91.83039209773716
30
0
40
1.0000000000000016
0
LINE
5
136
100
AcDbEntity
8
0
100
AcDbLine
10
-31.42715596627724
20
8.2243599609547662
30
0
11
-12.429180185155957
21
26.369973771193678
31
0
0
LINE
5
137
100
AcDbEntity
8
0
100
AcDbLine
10
-25.760212836180862
20
79.93792467605688
30
0
11
-8.6748874319884095
21
89.0504050358782
31
0
0
LINE
5
138
100
AcDbEntity
8
0
100
AcDbLine
10
41.461487709380265
20
83.417081447630494
30
0
11
42.266827556259784
21
68.751778926388468
31
0
0
LINE
5
139
100
AcDbEntity
8
0
100
AcDbLine
10
-28.062011854666302
20
40.755391684748545
30
0
11
-44.798253878962214
21
36.702694599080331
31
0
0
LINE
5
140
100
AcDbEntity
8
0
100
AcDbLine
10
-31.42715596627724
20
8.2243599609547662
30
0
11
49.992947699817627
21
2.5268840623830009
31
0
0
LINE
5
141
100
AcDbEntity
8
0
100
AcDbLine
10
-71.851009399774753
20
-18.376107116199794
30
0
11
85.060830183379963
21
-29.356213797123424
31
0
0
LINE
5
142
100
AcDbEntity
8
0
100
AcDbLine
10
86.897338777859005
20
-39.509179334604298
30
0
11
-93.259683443960313
21
-26.902461265603513
31
0
0
LINE
5
143
100
AcDbEntity
8
0
100
AcDbLine
10
50.002235639175808
20
-62.148124581708508
30
0
11
48.877568452880013
21
-63.447160230541627
31
0
0
LINE
5
144
100
AcDbEntity
8
0
100
AcDbLine
10
61.286846134666753
20
-37.717052353489933
30
0
11
63.414025588987364
21
-37.865904456683396
31
0
0
LINE
5
145
100
AcDbEntity
8
0
100
AcDbLine
10
61.772916656962863
20
-27.726612260518685
30
0
11
63.919096452378682
21
-27.876793936883651
31
0
0
ARC
5
146
100
AcDbEntity
8
0
100
AcDbCircle
10
13.303521520304017
20
-30.375447992100977
30
0
40
48.541720155413472
100
AcDbArc
50
319.11494089690376
51
351.30102218558784
0
ARC
5
147
100
AcDbEntity
8
0
100
AcDbCircle
10
-69.853759237646784
20
-21.435288665947013
30
0
40
48.541720155413785
100
AcDbArc
50
313.81729185403509
51
347.60126162958107
0
ARC
5
148
100
AcDbEntity
8
0
100
AcDbCircle
10
-69.853759237646784
20
-21.435288665947013
30
0
40
48.541720155413799
100
AcDbArc
50
17.284738725566775
51
30.681692520044624
0
ARC
5
149
100
AcDbEntity
8
0
100
AcDbCircle
10
-69.853759237646784
20
-21.435288665947013
30
0
40
48.541720155413792
100
AcDbArc
50
347.60126162958107
51
359.43675181051719
0
ARC
5
150
100
AcDbEntity
8
0
100
AcDbCircle
10
-68.853759237646784
20
-21.435288665947013
30
0
40
48.541720155413792
100
AcDbArc
50
347.60126162958107
51
359.43675181051719
0
LINE
5
151
100
AcDbEntity
8
0
100
AcDbLine
10
-21.444177306805123
20
-31.857866887736328
30
0
11
-22.44417730680512
21
-31.857866887736328
31
0
0
LINE
5
152
100
AcDbEntity
8
0
100
AcDbLine
10
-20.314384585342321
20
-21.912472079037499
30
0
11
-21.314384585342317
21
-21.912472079037499
31
0
0
LINE
5
153
100
AcDbEntity
8
0
100
AcDbLine
10
-8.6748874319884095
20
89.0504050358782
30
0
11
10.084940264924676
21
89.003891994071083
31
0
0
CIRCLE
5
154
100
AcDbEntity
8
0
100
AcDbCircle
10
0.38632358133653466
20
-65.426148823369843
30
0
40
1.9999999999999993
0
LWPOLYLINE
5
155
100
AcDbEntity
8
0
100
AcDbPolyline
90
4
70
1
43
0.0
10
-3.6074896392906424
20
-62.918994199486313
10
-3.6074896392906437
20
-65.203761866146479
42
1.0247944942837031
10
4.386235239862649
20
-65.45273310419357
10
4.4027416207159433
20
-62.969157729219141
0
LWPOLYLINE
5
156
100
AcDbEntity
8
0
100
AcDbPolyline
90
4
70
1
43
0.0
10
-3.5594169101744351
20
-45.814874790552373
42
-1.0247944942839993
10
4.4354442772572042
20
-45.605545588891033
10
4.4396349971617459
20
-48.089172280174353
10
-3.5707465281673052
20
-48.099614366602964
0
CIRCLE
5
157
100
AcDbEntity
8
0
100
AcDbCircle
10
0.43544997147010323
20
-45.612294934841991
30
0
40
1.9999999999999993
0
LINE
5
158
100
AcDbEntity
8
0
100
AcDbLine
10
27.241697196934421
20
-79.716355612561742
30
0
11
-33.494024661353173
21
-64.26284870432923
31
0
0
LINE
5
159
100
AcDbEntity
8
0
100
AcDbLine
10
0.80202409007611797
20
102.23585766964975
30
0
11
0.3678459719391336
21
-72.878612800757011
31
0
0
LINE
5
160
100
AcDbEntity
8
0
100
AcDbLine
10
0.32938571472165057
20
-88.39055892483529
30
0
11
0.32938509331725385
21
-88.39080955216329
31
0
0
LINE
5
161
100
AcDbEntity
8
0
100
AcDbLine
10
-71.851009399774753
20
6.3950385339263622
30
0
11
85.060830183379963
21
-4.5850681469972665
31
0
0
LINE
5
162
100
AcDbEntity
8
0
100
AcDbLine
10
86.897338777859005
20
-14.738033684478138
30
0
11
-93.259683443960313
21
-2.131315615477356
31
0
0
LINE
5
163
100
AcDbEntity
8
0
100
AcDbLine
10
52.928245669522965
20
-2.3365494448188429
30
0
11
60.243488812803491
21
-2.8484429407047833
31
0
0
LINE
5
164
100
AcDbEntity
8
0
100
AcDbLine
10
58.533560797697206
20
-12.753242040179272
30
0
11
65.033171756819726
21
-13.208060630702807
31
0
0
LINE
5
165
100
AcDbEntity
8
0
100
AcDbLine
10
-23.504184414310796
20
-7.012545884406296
30
0
11
-22.481986839224266
21
-7.0840754672169259
31
0
0
LINE
5
166
100
AcDbEntity
8
0
100
AcDbLine
10
-28.107134335409039
20
3.3340049234626346
30
0
11
-27.063907172255682
21
3.2610037683280613
31
0
0
ARC
5
167
100
AcDbEntity
8
0
100
AcDbCircle
10
13.303521520304017
20
-30.375447992100977
30
0
40
48.541720155413479
100
AcDbArc
50
35.283652425516586
51
41.795517090511758
0
ARC
5
168
100
AcDbEntity
8
0
100
AcDbCircle
10
14.303521520304017
20
-30.375447992100977
30
0
40
53.555733604680576
100
AcDbArc
50
18.69629931042741
51
30.929836268330405
0
ARC
5
169
100
AcDbEntity
8
0
100
AcDbCircle
10
13.303521520304017
20
-30.375447992100977
30
0
40
48.541720155413472
100
AcDbArc
50
3.1280829755731396
51
21.28652909246436
0
ARC
5
170
100
AcDbEntity
8
0
100
AcDbCircle
10
-68.853759237646784
20
-21.435288665947013
30
0
40
48.541720155413792
100
AcDbArc
50
17.196337456276254
51
30.58155286427041
0
ARC
5
171
100
AcDbEntity
8
0
100
AcDbCircle
10
-68.853759237646784
20
-21.435288665947013
30
0
40
48.541720155413799
100
AcDbArc
50
37.552624483727755
51
37.662825171599316
0
ARC
5
172
100
AcDbEntity
8
0
100
AcDbCircle
10
-69.853759237646784
20
-21.435288665947013
30
0
40
48.541720155413799
100
AcDbArc
50
30.681692520044624
51
37.662825171599316
0
ARC
5
173
100
AcDbEntity
8
0
100
AcDbCircle
10
-69.853759237646784
20
-21.435288665947013
30
0
40
48.541720155413792
100
AcDbArc
50
-0.56324818948277566
51
17.284738725566775
0
LINE
5
174
100
AcDbEntity
8
0
100
AcDbLine
10
22.67330655020163
20
-52.702846427372791
30
0
11
21.30847700128438
21
-52.607340733932446
31
0
0
LINE
5
175
100
AcDbEntity
8
0
100
AcDbLine
10
-52.85725030184657
20
48.632568352168512
30
0
11
-53.0962000757102
21
44.639711850541495
31
0
0
LINE
5
176
100
AcDbEntity
8
0
100
AcDbLine
10
-50.741443190853836
20
50.5095274580706
30
0
11
-43.996775853353356
21
50.106223007455135
31
0
0
LINE
5
177
100
AcDbEntity
8
0
100
AcDbLine
10
-51.219150689694487
20
42.523802971052156
30
0
11
-44.474291303307389
21
42.12048703667228
31
0
0
LINE
5
178
100
AcDbEntity
8
0
100
AcDbLine
10
-27.833918648253047
20
44.566834681651613
30
0
11
0.6548126507773111
21
42.861945988859567
31
0
0
LINE
5
179
100
AcDbEntity
8
0
100
AcDbLine
10
29.151647824898319
20
44.425544895914214
30
0
11
0.6548126507773111
21
42.861945988859567
31
0
0
LINE
5
180
100
AcDbEntity
8
0
100
AcDbLine
10
-26.017994559400641
20
75.634086204766419
30
0
11
0.73209523318837622
21
74.031868954045592
31
0
0
LINE
5
181
100
AcDbEntity
8
0
100
AcDbLine
10
27.489801153805622
20
75.501419189950269
30
0
11
0.73209523318837622
21
74.031868954045592
31
0
0
LINE
5
182
100
AcDbEntity
8
0
100
AcDbLine
10
-49.096105384085924
20
80.949111153565653
30
0
11
-42.256101436581517
21
80.540105950459775
31
0
0
LINE
5
183
100
AcDbEntity
8
0
100
AcDbLine
10
-51.211912495078664
20
79.072152047663565
30
0
11
-51.450862268942316
21
75.079295546036548
31
0
0
LINE
5
184
100
AcDbEntity
8
0
100
AcDbLine
10
-49.573812882926596
20
72.963386666547208
30
0
11
-42.727793891088567
21
72.554021787562732
31
0
0
LINE
5
185
100
AcDbEntity
8
0
100
AcDbLine
10
10.657262642763774
20
78.582993474342317
30
0
11
11.321445924971385
21
78.619470842841238
31
0
0
LINE
5
186
100
AcDbEntity
8
0
100
AcDbLine
10
11.321445924971385
20
78.619470842841238
30
0
11
11.760149887594736
21
70.631508722677012
31
0
0
LINE
5
187
100
AcDbEntity
8
0
100
AcDbLine
10
11.760149887594736
20
70.631508722677012
30
0
11
11.095966605387101
21
70.59503135417809
31
0
0
LINE
5
188
100
AcDbEntity
8
0
100
AcDbLine
10
13.381362419658526
20
47.567769361539256
30
0
11
13.820066382281876
21
39.579807241375029
31
0
0
LINE
5
189
100
AcDbEntity
8
0
100
AcDbLine
10
29.151647824898319
20
48.425544895914214
30
0
11
0.6548126507773111
21
46.861945988859574
31
0
0
LINE
5
190
100
AcDbEntity
8
0
100
AcDbLine
10
29.151647824898319
20
40.425544895914207
30
0
11
0.6548126507773111
21
38.861945988859567
31
0
0
LINE
5
191
100
AcDbEntity
8
0
100
AcDbLine
10
12.802162390164508
20
39.52846150400579
30
0
11
13.820066382281876
21
39.579807241375029
31
0
0
LINE
5
192
100
AcDbEntity
8
0
100
AcDbLine
10
12.364117327321837
20
47.504426316332626
30
0
11
13.381362419658526
21
47.567769361539256
31
0
0
LINE
5
193
100
AcDbEntity
8
0
100
AcDbLine
10
35.990526756924403
20
-25.922456548982559
30
0
11
35.292470956630815
21
-35.898062700975323
31
0
0
LINE
5
194
100
AcDbEntity
8
0
100
AcDbLine
10
35.990526756924403
20
-25.922456548982559
30
0
11
34.46835884371076
21
-25.815940902248919
31
0
0
LINE
5
195
100
AcDbEntity
8
0
100
AcDbLine
10
34.46835884371076
20
-25.815940902248919
30
0
11
33.770303043417165
21
-35.79154705424169
31
0
0
LINE
5
196
100
AcDbEntity
8
0
100
AcDbLine
10
-49.358355797914385
20
-19.950059322365895
30
0
11
-59.333961949907177
21
-19.252003522072304
31
0
0
LINE
5
197
100
AcDbEntity
8
0
100
AcDbLine
10
-50.05641159820798
20
-29.925665474358659
30
0
11
-63.756027864678011
21
-28.967017302919423
31
0
0
ARC
5
198
100
AcDbEntity
8
0
100
AcDbCircle
10
-25.085127141231212
20
-40.705260263433644
30
0
40
40.413177437102604
100
AcDbArc
50
135.09099754197936
51
147.93722741758691
0
ARC
5
199
100
AcDbEntity
8
0
100
AcDbCircle
10
-24.085127141231212
20
-40.705260263433644
30
0
40
40.413177437102618
100
AcDbArc
50
147.93722741758691
51
163.11475218601788
0
ARC
5
200
100
AcDbEntity
8
0
100
AcDbCircle
10
-49.21548424657442
20
78.952677160869925
30
0
40
2.0000000000000155
100
AcDbArc
50
86.578013461481603
51
176.57525765019545
0
ARC
5
201
100
AcDbEntity
8
0
100
AcDbCircle
10
-49.4544340204381
20
74.959820659242922
30
0
40
1.9999999999999907
100
AcDbArc
50
176.57525765019585
51
266.57801346148153
0
ARC
5
202
100
AcDbEntity
8
0
100
AcDbCircle
10
-50.860822053342346
20
48.513093465374894
30
0
40
1.9999999999999982
100
AcDbArc
50
86.578013461481163
51
176.57525765019608
0
ARC
5
203
100
AcDbEntity
8
0
100
AcDbCircle
10
-51.099771827205984
20
44.52023696374787
30
0
40
1.9999999999999907
100
AcDbArc
50
176.57525765019585
51
266.57801346148136
0
LINE
5
204
100
AcDbEntity
8
0
100
AcDbLine
10
-42.048984920646291
20
84.125802903946592
30
0
11
-42.263704273087157
21
80.540560570034998
31
0
0
LINE
5
205
100
AcDbEntity
8
0
100
AcDbLine
10
-42.741965523264753
20
72.554869195157977
30
0
11
-42.976922184524767
21
68.631717606779688
31
0
0
LINE
5
206
100
AcDbEntity
8
0
100
AcDbLine
10
-42.263704273087157
20
80.540560570034998
30
0
11
-42.741965523264753
21
72.554869195157977
31
0
0
LINE
5
207
100
AcDbEntity
8
0
100
AcDbLine
10
-43.701267546541075
20
55.048160102062582
30
0
11
-43.996775853353356
21
50.106223007455135
31
0
0
LINE
5
208
100
AcDbEntity
8
0
100
AcDbLine
10
-44.474291303307389
20
42.12048703667228
30
0
11
-44.798253878962214
21
36.702694599080331
31
0
0
LINE
5
209
100
AcDbEntity
8
0
100
AcDbLine
10
-43.996775853353356
20
50.106223007455135
30
0
11
-44.474291303307389
21
42.12048703667228
31
0
0
LINE
5
210
100
AcDbEntity
8
0
100
AcDbLine
10
81.820322845222378
20
-66.721984733534384
30
0
11
-98.336699376596101
21
-54.115266664533621
31
0
0
LINE
5
211
100
AcDbEntity
8
0
100
AcDbLine
10
-76.928025332410641
20
-45.588912515129948
30
0
11
79.983814250743336
21
-56.569019196053546
31
0
0
LINE
5
212
100
AcDbEntity
8
0
100
AcDbLine
10
-65.092622482890519
20
-46.41710996820084
30
0
11
-51.525109041662489
21
-47.366514075470917
31
0
0
LINE
5
213
100
AcDbEntity
8
0
100
AcDbLine
10
-62.223164841956077
20
-56.642357436453551
30
0
11
-52.223164841956077
21
-57.342120227463639
31
0
0
LINE
5
214
100
AcDbEntity
8
0
100
AcDbLine
10
34.584861412176842
20
-63.41662290083061
30
0
11
35.28291721247043
21
-53.441016748837875
31
0
0
LINE
5
215
100
AcDbEntity
8
0
100
AcDbLine
10
35.28291721247043
20
-53.441016748837875
30
0
11
33.725932626620946
21
-53.332064760902504
31
0
0
LINE
5
216
100
AcDbEntity
8
0
100
AcDbLine
10
33.725932626620946
20
-53.332064760902504
30
0
11
33.027876826327351
21
-63.30767091289524
31
0
0
LINE
5
217
100
AcDbEntity
8
0
100
AcDbLine
10
33.027876826327351
20
-63.30767091289524
30
0
11
34.584861412176842
21
-63.41662290083061
31
0
0
ARC
5
218
100
AcDbEntity
8
0
100
AcDbCircle
10
-25.085127141231212
20
-40.705260263433644
30
0
40
40.413177437102618
100
AcDbArc
50
163.11475218601788
51
188.12518059589107
0
ARC
5
219
100
AcDbEntity
8
0
100
AcDbCircle
10
-25.085127141231212
20
-40.705260263433644
30
0
40
40.413177437102625
100
AcDbArc
50
203.22568924196906
51
218.85400998806546
0
ARC
5
220
100
AcDbEntity
8
0
100
AcDbCircle
10
-23.61233764867286
20
-40.852539212689464
30
0
40
40.413177437102618
100
AcDbArc
50
188.12518059589107
51
203.22568924196906
0
LINE
5
221
100
AcDbEntity
8
0
100
AcDbLine
10
-8.6748874319884095
20
89.0504050358782
30
0
11
-16.204496570581519
21
103.16794682685638
31
0
0
LINE
5
222
100
AcDbEntity
8
0
100
AcDbLine
10
10.084940264924676
20
89.003891994071083
30
0
11
17.684462352002896
21
103.08392267756074
31
0
0
LINE
5
223
100
AcDbEntity
8
0
100
AcDbLine
10
-16.204496570581519
20
103.16794682685638
30
0
11
-4.8289045891635896
21
109.23513349492971
31
0
0
LINE
5
224
100
AcDbEntity
8
0
100
AcDbLine
10
-4.8289045891635896
20
109.23513349492971
30
0
11
-0.99800394157419703
21
102.23601696503594
31
0
0
LINE
5
225
100
AcDbEntity
8
0
100
AcDbLine
10
17.684462352002896
20
103.08392267756074
30
0
11
6.2877934487788512
21
109.23513349492971
31
0
0
LINE
5
226
100
AcDbEntity
8
0
100
AcDbLine
10
6.2877934487788512
20
109.23513349492971
30
0
11
2.4735568057867141
21
102.23601696503594
31
0
0
ARC
5
227
100
AcDbEntity
8
0
100
AcDbCircle
10
-32.507696866128647
20
-60.38636092795646
30
0
40
3.9999999999999929
100
AcDbArc
50
176.03776565626148
51
255.72465872485967
0
ARC
5
228
100
AcDbEntity
8
0
100
AcDbCircle
10
28.228024992158957
20
-75.839867836188972
30
0
40
3.9999999999999973
100
AcDbArc
50
-104.27534127514048
51
0.081448582895423324
0
ENDSEC
0
SECTION
2
OBJECTS
0
DICTIONARY
5
C
100
AcDbDictionary
3
ACAD_GROUP
350
D
3
ACAD_MLINESTYLE
350
17
0
DICTIONARY
5
D
100
AcDbDictionary
0
DICTIONARY
5
1A
330
C
100
AcDbDictionary
0
DICTIONARY
5
17
100
AcDbDictionary
0
ENDSEC
0
EOF
