0
SECTION
2
HEADER
9
$INSUNITS
70
4
9
$ACADVER
1
AC1014
9
$HANDSEED
5
FFFF
0
ENDSEC
0
SECTION
2
TABLES
0
TABLE
2
VPORT
5
8
100
AcDbSymbolTable
0
ENDTAB
0
TABLE
2
LTYPE
5
5
100
AcDbSymbolTable
0
LTYPE
5
14
100
AcDbSymbolTableRecord
100
AcDbLinetypeTableRecord
2
BYBLOCK
70
0
0
LTYPE
5
15
100
AcDbSymbolTableRecord
100
AcDbLinetypeTableRecord
2
BYLAYER
70
0
0
ENDTAB
0
TABLE
2
LAYER
5
2
100
AcDbSymbolTable
70
2
0
LAYER
5
50
100
AcDbSymbolTableRecord
100
AcDbLayerTableRecord
2
0
70
0
6
CONTINUOUS
0
ENDTAB
0
TABLE
2
STYLE
5
3
100
AcDbSymbolTable
70
1
0
STYLE
5
11
100
AcDbSymbolTableRecord
100
AcDbTextStyleTableRecord
2
STANDARD
70
0
0
ENDTAB
0
TABLE
2
VIEW
5
6
100
AcDbSymbolTable
70
0
0
ENDTAB
0
TABLE
2
UCS
5
7
100
AcDbSymbolTable
70
0
0
ENDTAB
0
TABLE
2
APPID
5
9
100
AcDbSymbolTable
70
2
0
APPID
5
12
100
AcDbSymbolTableRecord
100
AcDbRegAppTableRecord
2
ACAD
70
0
0
ENDTAB
0
TABLE
2
DIMSTYLE
5
A
100
AcDbSymbolTable
70
1
0
ENDTAB
0
TABLE
2
BLOCK_RECORD
5
1
100
AcDbSymbolTable
70
1
0
BLOCK_RECORD
5
1F
100
AcDbSymbolTableRecord
100
AcDbBlockTableRecord
2
*MODEL_SPACE
0
BLOCK_RECORD
5
1B
100
AcDbSymbolTableRecord
100
AcDbBlockTableRecord
2
*PAPER_SPACE
0
ENDTAB
0
ENDSEC
0
SECTION
2
BLOCKS
0
BLOCK
5
20
100
AcDbEntity
100
AcDbBlockBegin
2
*MODEL_SPACE
0
ENDBLK
5
21
100
AcDbEntity
100
AcDbBlockEnd
0
BLOCK
5
1C
100
AcDbEntity
100
AcDbBlockBegin
2
*PAPER_SPACE
0
ENDBLK
5
1D
100
AcDbEntity
100
AcDbBlockEnd
0
ENDSEC
0
SECTION
2
ENTITIES
0
LINE
5
100
100
AcDbEntity
8
0
100
AcDbLine
10
29.774785897159859
20
-19.725325255252585
30
0
11
49.492740244702766
21
1.9763532524062777
31
0
0
LINE
5
101
100
AcDbEntity
8
0
100
AcDbLine
10
-12.429180185155957
20
26.369973771193678
30
0
11
-28.062011854666302
21
40.755391684748538
31
0
0
LINE
5
102
100
AcDbEntity
8
0
100
AcDbLine
10
6.4732316863733175
20
102.11834347892838
30
0
11
2.4735568057867141
21
102.23601696503594
31
0
0
LINE
5
103
100
AcDbEntity
8
0
100
AcDbLine
10
13.539814792575164
20
95.404918111178873
30
0
11
6.4732316863733175
21
102.11834347892838
31
0
0
LINE
5
104
100
AcDbEntity
8
0
100
AcDbLine
10
-27.605825441839791
20
48.378277678554696
30
0
11
-28.062011854666302
21
40.755391684748538
31
0
0
LWPOLYLINE
5
105
100
AcDbEntity
8
0
100
AcDbPolyline
90
4
70
1
43
0.0
10
-4.9981918210220755
20
102.14678568052038
10
-12.097978320864406
20
95.468484352947911
10
-8.6748874319884095
20
89.0504050358782
10
-0.99798260061710664
20
102.24462428596418
0
LINE
5
106
100
AcDbEntity
8
0
100
AcDbLine
10
42.979954608678028
20
54.14116081478565
30
0
11
43.9277957145
21
36.851406416766729
31
0
0
LINE
5
107
100
AcDbEntity
8
0
100
AcDbLine
10
-26.275776282620456
20
71.330247733475943
30
0
11
-42.976922184524767
21
68.631717606779688
31
0
0
LINE
5
108
100
AcDbEntity
8
0
100
AcDbLine
10
28.279953532340592
20
39.74562458216581
30
0
11
43.9277957145
21
36.851406416766729
31
0
0
LINE
5
109
100
AcDbEntity
8
0
100
AcDbLine
10
-42.048984920646291
20
84.125802903946592
30
0
11
-42.976922184524767
21
68.631717606779688
31
0
0
LINE
5
110
100
AcDbEntity
8
0
100
AcDbLine
10
-10.542756429286086
20
57.86508146254441
30
0
11
-26.27577628262042
21
71.330247733475943
31
0
0
LINE
5
111
100
AcDbEntity
8
0
100
AcDbLine
10
11.798145714674355
20
57.809689519067163
30
0
11
26.64220774305431
21
70.387050042984043
31
0
0
ARC
5
112
100
AcDbEntity
8
0
100
AcDbCircle
10
-25.085127141231212
20
-40.705260263433644
30
0
40
40.413177437102604
100
AcDbArc
50
135.09099754197936
51
218.85400998806546
0
LINE
5
113
100
AcDbEntity
8
0
100
AcDbLine
10
-10.542756429286086
20
57.86508146254441
30
0
11
-27.605825441839791
21
48.378277678554696
31
0
0
LINE
5
114
100
AcDbEntity
8
0
100
AcDbLine
10
27.782115628774299
20
48.818798410410118
30
0
11
42.979954608678028
21
54.14116081478565
31
0
0
LINE
5
115
100
AcDbEntity
8
0
100
AcDbLine
10
26.094320725589419
20
80.36302727252442
30
0
11
10.084940264924676
21
89.003891994071083
31
0
0
LINE
5
116
100
AcDbEntity
8
0
100
AcDbLine
10
10.084940264924676
20
89.003891994071083
30
0
11
2.4735568057867141
21
102.23601696503594
31
0
0
LINE
5
117
100
AcDbEntity
8
0
100
AcDbLine
10
-26.27577628262042
20
71.330247733475943
30
0
11
-25.760212836180862
21
79.93792467605688
31
0
0
LINE
5
118
100
AcDbEntity
8
0
100
AcDbLine
10
-43.701267546541075
20
55.048160102062582
30
0
11
-44.798253878962214
21
36.702694599080331
31
0
0
LINE
5
119
100
AcDbEntity
8
0
100
AcDbLine
10
32.235345827078902
20
-80.986932157009178
30
0
11
32.224885785059278
21
-73.628721170407744
31
0
0
LINE
5
120
100
AcDbEntity
8
0
100
AcDbLine
10
26.64220774305431
20
70.387050042984043
30
0
11
42.266827556259784
21
68.751778926388468
31
0
0
LINE
5
121
100
AcDbEntity
8
0
100
AcDbLine
10
11.798145714674355
20
57.809689519067163
30
0
11
27.782115628774299
21
48.818798410410118
31
0
0
LINE
5
122
100
AcDbEntity
8
0
100
AcDbLine
10
27.782115628774299
20
48.818798410410118
30
0
11
28.279953532340592
21
39.74562458216581
31
0
0
LINE
5
123
100
AcDbEntity
8
0
100
AcDbLine
10
26.094320725589419
20
80.36302727252442
30
0
11
41.461487709380265
21
83.417081447630494
31
0
0
ARC
5
124
100
AcDbEntity
8
0
100
AcDbCircle
10
61.057506461851148
20
-45.310795832011465
30
0
40
40.413177437102775
100
AcDbArc
50
140.7209981987944
51
224.48401064488044
0
LINE
5
125
100
AcDbEntity
8
0
100
AcDbLine
10
26.64220774305431
20
70.387050042984043
30
0
11
26.094320725589419
21
80.36302727252442
31
0
0
LINE
5
126
100
AcDbEntity
8
0
100
AcDbLine
10
32.224885785059278
20
-73.628721170407744
30
0
11
48.877568452880013
21
-63.447160230541627
31
0
0
LINE
5
127
100
AcDbEntity
8
0
100
AcDbLine
10
-56.556765783923751
20
-66.057989341513547
30
0
11
-36.245366813107722
21
-56.460630267203243
31
0
0
LINE
5
128
100
AcDbEntity
8
0
100
AcDbLine
10
-18.092420193198571
20
-68.181610081724713
30
0
11
-8.6748874319884095
21
89.0504050358782
31
0
0
LINE
5
129
100
AcDbEntity
8
0
100
AcDbLine
10
10.084940264924676
20
89.003891994071083
30
0
11
13.539814792575164
21
95.404918111178873
31
0
0
LINE
5
130
100
AcDbEntity
8
0
100
AcDbLine
10
13.528369549305772
20
26.305614726136586
30
0
11
28.279953532340592
21
39.74562458216581
31
0
0
LINE
5
131
100
AcDbEntity
8
0
100
AcDbLine
10
19.239339274456579
20
-77.680247542162874
30
0
11
10.084940264924676
21
89.003891994071083
31
0
0
LINE
5
132
100
AcDbEntity
8
0
100
AcDbLine
10
-27.605825441839791
20
48.37827767855471
30
0
11
-43.701267546541075
21
55.048160102062582
31
0
0
LINE
5
133
100
AcDbEntity
8
0
100
AcDbLine
10
-25.760212836180862
20
79.937924676056866
30
0
11
-42.048984920646291
21
84.125802903946592
31
0
0
LINE
5
134
100
AcDbEntity
8
0
100
AcDbLine
10
-53.274575567977713
20
-12.642854704970121
30
0
11
-31.42715596627724
21
8.2243599609547662
31
0
0
LINE
5
135
100
AcDbEntity
8
0
100
AcDbLine
10
-36.72877564567343
20
-63.43980346582461
30
0
11
-36.245366813107722
21
-56.460630267203243
31
0
0
LINE
5
136
100
AcDbEntity
8
0
100
AcDbLine
10
29.774785897159859
20
-19.725325255252585
30
0
11
28.356553460299558
21
11.128268179902436
31
0
0
ARC
5
137
100
AcDbEntity
8
0
100
AcDbCircle
10
14.303521520304017
20
-30.375447992100977
30
0
40
48.541720155413451
100
AcDbArc
50
-8.7816546666532069
51
3.0450538109460368
0
LINE
5
138
100
AcDbEntity
8
0
100
AcDbLine
10
2.4735568057867141
20
102.23601696503594
30
0
11
-0.99800394157419703
21
102.23601696503594
31
0
0
CIRCLE
5
139
100
AcDbEntity
8
0
100
AcDbCircle
10
0.72715787236461438
20
97.953296605262125
30
0
40
0.99999999999999489
0
LINE
5
140
100
AcDbEntity
8
0
100
AcDbLine
10
28.356553460299558
20
11.128268179902436
30
0
11
13.528369549305772
21
26.305614726136586
31
0
0
CIRCLE
5
141
100
AcDbEntity
8
0
100
AcDbCircle
10
0.71197676740247573
20
91.83039209773716
30
0
40
1.0000000000000016
0
LINE
5
142
100
AcDbEntity
8
0
100
AcDbLine
10
-31.42715596627724
20
8.2243599609547662
30
0
11
-12.429180185155957
21
26.369973771193678
31
0
0
LINE
5
143
100
AcDbEntity
8
0
100
AcDbLine
10
-25.760212836180862
20
79.93792467605688
30
0
11
-8.6748874319884095
21
89.0504050358782
31
0
0
LINE
5
144
100
AcDbEntity
8
0
100
AcDbLine
10
41.461487709380265
20
83.417081447630494
30
0
11
42.266827556259784
21
68.751778926388468
31
0
0
LINE
5
145
100
AcDbEntity
8
0
100
AcDbLine
10
-28.062011854666302
20
40.755391684748545
30
0
11
-44.798253878962214
21
36.702694599080331
31
0
0
LINE
5
146
100
AcDbEntity
8
0
100
AcDbLine
10
-31.42715596627724
20
8.2243599609547662
30
0
11
49.992947699817627
21
2.5268840623830009
31
0
0
LINE
5
147
100
AcDbEntity
8
0
100
AcDbLine
10
-71.851009399774753
20
-18.376107116199794
30
0
11
85.060830183379963
21
-29.356213797123424
31
0
0
LINE
5
148
100
AcDbEntity
8
0
100
AcDbLine
10
86.897338777859005
20
-39.509179334604298
30
0
11
-93.259683443960313
21
-26.902461265603513
31
0
0
LINE
5
149
100
AcDbEntity
8
0
100
AcDbLine
10
50.002235639175808
20
-62.148124581708508
30
0
11
48.877568452880013
21
-63.447160230541627
31
0
0
LINE
5
150
100
AcDbEntity
8
0
100
AcDbLine
10
61.286846134666753
20
-37.717052353489933
30
0
11
62.27620237050246
21
-37.78628382157909
31
0
0
LINE
5
151
100
AcDbEntity
8
0
100
AcDbLine
10
61.772916656962863
20
-27.726612260518685
30
0
11
62.776704276551584
21
-27.796853583145172
31
0
0
ARC
5
152
100
AcDbEntity
8
0
100
AcDbCircle
10
13.303521520304017
20
-30.375447992100977
30
0
40
48.541720155413472
100
AcDbArc
50
319.11494089690376
51
351.30102218558784
0
ARC
5
153
100
AcDbEntity
8
0
100
AcDbCircle
10
-69.853759237646784
20
-21.435288665947013
30
0
40
48.541720155413785
100
AcDbArc
50
313.81729185403509
51
347.60126162958107
0
ARC
5
154
100
AcDbEntity
8
0
100
AcDbCircle
10
-69.853759237646784
20
-21.435288665947013
30
0
40
48.541720155413799
100
AcDbArc
50
17.284738725566775
51
30.681692520044624
0
ARC
5
155
100
AcDbEntity
8
0
100
AcDbCircle
10
-69.853759237646784
20
-21.435288665947013
30
0
40
48.541720155413792
100
AcDbArc
50
347.60126162958107
51
359.43675181051719
0
ARC
5
156
100
AcDbEntity
8
0
100
AcDbCircle
10
-68.853759237646784
20
-21.435288665947013
30
0
40
48.541720155413792
100
AcDbArc
50
347.60126162958107
51
359.43675181051719
0
LINE
5
157
100
AcDbEntity
8
0
100
AcDbLine
10
-21.444177306805123
20
-31.857866887736328
30
0
11
-22.44417730680512
21
-31.857866887736328
31
0
0
LINE
5
158
100
AcDbEntity
8
0
100
AcDbLine
10
-20.314384585342321
20
-21.912472079037499
30
0
11
-21.314384585342317
21
-21.912472079037499
31
0
0
LINE
5
159
100
AcDbEntity
8
0
100
AcDbLine
10
-8.6748874319884095
20
89.0504050358782
30
0
11
10.084940264924676
21
89.003891994071083
31
0
0
CIRCLE
5
160
100
AcDbEntity
8
0
100
AcDbCircle
10
0.38632358133653466
20
-65.426148823369843
30
0
40
1.9999999999999993
0
LWPOLYLINE
5
161
100
AcDbEntity
8
0
100
AcDbPolyline
90
4
70
1
43
0.0
10
-3.6074896392906424
20
-62.918994199486313
10
-3.6074896392906437
20
-65.203761866146479
42
1.0247944942837031
10
4.386235239862649
20
-65.45273310419357
10
4.4027416207159433
20
-62.969157729219141
0
LWPOLYLINE
5
162
100
AcDbEntity
8
0
100
AcDbPolyline
90
4
70
1
43
0.0
10
-3.5594169101744351
20
-45.814874790552373
42
-1.0247944942839993
10
4.4354442772572042
20
-45.605545588891033
10
4.4396349971617459
20
-48.089172280174353
10
-3.5707465281673052
20
-48.099614366602964
0
CIRCLE
5
163
100
AcDbEntity
8
0
100
AcDbCircle
10
0.43544997147010323
20
-45.612294934841991
30
0
40
1.9999999999999993
0
LINE
5
164
100
AcDbEntity
8
0
100
AcDbLine
10
32.235345827078902
20
-80.986932157009178
30
0
11
-36.72877564567343
21
-63.43980346582461
31
0
0
LINE
5
165
100
AcDbEntity
8
0
100
AcDbLine
10
0.80202409007611797
20
102.23585766964975
30
0
11
0.3678459719391336
21
-72.878612800757011
31
0
0
LINE
5
166
100
AcDbEntity
8
0
100
AcDbLine
10
0.32938571472165057
20
-88.39055892483529
30
0
11
0.32938509331725385
21
-88.39080955216329
31
0
0
LINE
5
167
100
AcDbEntity
8
0
100
AcDbLine
10
-71.851009399774753
20
6.3950385339263622
30
0
11
85.060830183379963
21
-4.5850681469972665
31
0
0
LINE
5
168
100
AcDbEntity
8
0
100
AcDbLine
10
86.897338777859005
20
-14.738033684478138
30
0
11
-93.259683443960313
21
-2.131315615477356
31
0
0
LINE
5
169
100
AcDbEntity
8
0
100
AcDbLine
10
52.928245669522965
20
-2.3365494448188429
30
0
11
53.980233409448473
21
-2.4101636325187092
31
0
0
LINE
5
170
100
AcDbEntity
8
0
100
AcDbLine
10
58.533560797697206
20
-12.753242040179272
30
0
11
59.561520910163367
21
-12.825174863913901
31
0
0
LINE
5
171
100
AcDbEntity
8
0
100
AcDbLine
10
-23.504184414310796
20
-7.012545884406296
30
0
11
-22.481986839224266
21
-7.0840754672169259
31
0
0
LINE
5
172
100
AcDbEntity
8
0
100
AcDbLine
10
-28.107134335409039
20
3.3340049234626346
30
0
11
-27.063907172255682
21
3.2610037683280613
31
0
0
ARC
5
173
100
AcDbEntity
8
0
100
AcDbCircle
10
13.303521520304017
20
-30.375447992100977
30
0
40
48.541720155413479
100
AcDbArc
50
35.283652425516586
51
41.795517090511758
0
ARC
5
174
100
AcDbEntity
8
0
100
AcDbCircle
10
14.303521520304017
20
-30.375447992100977
30
0
40
48.541720155413479
100
AcDbArc
50
21.19543536558081
51
35.17727904145972
0
ARC
5
175
100
AcDbEntity
8
0
100
AcDbCircle
10
13.303521520304017
20
-30.375447992100977
30
0
40
48.541720155413472
100
AcDbArc
50
3.1280829755731396
51
21.28652909246436
0
ARC
5
176
100
AcDbEntity
8
0
100
AcDbCircle
10
-68.853759237646784
20
-21.435288665947013
30
0
40
48.541720155413792
100
AcDbArc
50
17.196337456276254
51
30.58155286427041
0
ARC
5
177
100
AcDbEntity
8
0
100
AcDbCircle
10
-68.853759237646784
20
-21.435288665947013
30
0
40
48.541720155413799
100
AcDbArc
50
37.552624483727755
51
37.662825171599316
0
ARC
5
178
100
AcDbEntity
8
0
100
AcDbCircle
10
-69.853759237646784
20
-21.435288665947013
30
0
40
48.541720155413799
100
AcDbArc
50
30.681692520044624
51
37.662825171599316
0
ARC
5
179
100
AcDbEntity
8
0
100
AcDbCircle
10
-69.853759237646784
20
-21.435288665947013
30
0
40
48.541720155413792
100
AcDbArc
50
-0.56324818948277566
51
17.284738725566775
0
LINE
5
180
100
AcDbEntity
8
0
100
AcDbLine
10
-71.851009399774753
20
-36.063933013123062
30
0
11
85.060830183379963
21
-47.044039694046695
31
0
0
LINE
5
181
100
AcDbEntity
8
0
100
AcDbLine
10
86.897338777859005
20
-57.197005231527562
30
0
11
22.67330655020163
21
-52.702846427372791
31
0
0
LINE
5
182
100
AcDbEntity
8
0
100
AcDbLine
10
21.30847700128438
20
-52.607340733932446
30
0
11
-93.259683443960313
21
-44.590287162526785
31
0
0
LINE
5
183
100
AcDbEntity
8
0
100
AcDbLine
10
22.67330655020163
20
-52.702846427372791
30
0
11
21.30847700128438
21
-52.607340733932446
31
0
0
LWPOLYLINE
5
184
100
AcDbEntity
8
0
100
AcDbPolyline
90
4
70
1
43
0.0
10
-34.440956236416575
20
-48.706202833968
10
-33.742900436122987
20
-38.730596681975243
10
-32.545827697883851
20
-38.814363378010462
10
-33.223738365143667
20
-48.502084359591478
0
LINE
5
185
100
AcDbEntity
8
0
100
AcDbLine
10
-52.737781161415533
20
50.628900578814999
30
0
11
-53.215680709142802
21
42.643187575560965
31
0
0
LINE
5
186
100
AcDbEntity
8
0
100
AcDbLine
10
-52.737781161415533
20
50.628900578814999
30
0
11
-43.996775853353356
21
50.106223007455135
31
0
0
LINE
5
187
100
AcDbEntity
8
0
100
AcDbLine
10
-53.215680709142802
20
42.643187575560965
30
0
11
-44.474291303307389
21
42.12048703667228
31
0
0
LINE
5
188
100
AcDbEntity
8
0
100
AcDbLine
10
-27.833918648253047
20
44.566834681651613
30
0
11
0.6548126507773111
21
42.861945988859567
31
0
0
LINE
5
189
100
AcDbEntity
8
0
100
AcDbLine
10
29.151647824898319
20
44.425544895914214
30
0
11
0.6548126507773111
21
42.861945988859567
31
0
0
LINE
5
190
100
AcDbEntity
8
0
100
AcDbLine
10
-26.017994559400641
20
75.634086204766419
30
0
11
0.73209523318837622
21
74.031868954045592
31
0
0
LINE
5
191
100
AcDbEntity
8
0
100
AcDbLine
10
27.489801153805622
20
75.501419189950269
30
0
11
0.73209523318837622
21
74.031868954045592
31
0
0
LINE
5
192
100
AcDbEntity
8
0
100
AcDbLine
10
-51.0924433546476
20
81.068484274310038
30
0
11
-42.256101436581517
21
80.540105950459775
31
0
0
LINE
5
193
100
AcDbEntity
8
0
100
AcDbLine
10
-51.0924433546476
20
81.068484274310038
30
0
11
-51.570342902374918
21
73.082771271056004
31
0
0
LINE
5
194
100
AcDbEntity
8
0
100
AcDbLine
10
-51.570342902374918
20
73.082771271056004
30
0
11
-42.727793891088567
21
72.554021787562732
31
0
0
LINE
5
195
100
AcDbEntity
8
0
100
AcDbLine
10
10.657262642763774
20
78.582993474342317
30
0
11
11.321445924971385
21
78.619470842841238
31
0
0
LINE
5
196
100
AcDbEntity
8
0
100
AcDbLine
10
11.321445924971385
20
78.619470842841238
30
0
11
11.760149887594736
21
70.631508722677012
31
0
0
LINE
5
197
100
AcDbEntity
8
0
100
AcDbLine
10
11.760149887594736
20
70.631508722677012
30
0
11
11.095966605387101
21
70.59503135417809
31
0
0
LINE
5
198
100
AcDbEntity
8
0
100
AcDbLine
10
13.381362419658526
20
47.567769361539256
30
0
11
13.820066382281876
21
39.579807241375029
31
0
0
LINE
5
199
100
AcDbEntity
8
0
100
AcDbLine
10
29.151647824898319
20
48.425544895914214
30
0
11
0.6548126507773111
21
46.861945988859574
31
0
0
LINE
5
200
100
AcDbEntity
8
0
100
AcDbLine
10
29.151647824898319
20
40.425544895914207
30
0
11
0.6548126507773111
21
38.861945988859567
31
0
0
LINE
5
201
100
AcDbEntity
8
0
100
AcDbLine
10
12.802162390164508
20
39.52846150400579
30
0
11
13.820066382281876
21
39.579807241375029
31
0
0
LINE
5
202
100
AcDbEntity
8
0
100
AcDbLine
10
12.364117327321837
20
47.504426316332626
30
0
11
13.381362419658526
21
47.567769361539256
31
0
0
LINE
5
203
100
AcDbEntity
8
0
100
AcDbLine
10
50.508163950866241
20
-44.626172678076294
30
0
11
49.810108150572646
21
-54.601778830069065
31
0
0
LINE
5
204
100
AcDbEntity
8
0
100
AcDbLine
10
50.508163950866241
20
-44.626172678076294
30
0
11
59.508163950866248
21
-45.25595918998539
31
0
0
LINE
5
205
100
AcDbEntity
8
0
100
AcDbLine
10
49.810108150572646
20
-54.601778830069065
30
0
11
54.785322664030325
21
-54.949925829450173
31
0
0
ENDSEC
0
SECTION
2
OBJECTS
0
DICTIONARY
5
C
100
AcDbDictionary
3
ACAD_GROUP
350
D
3
ACAD_MLINESTYLE
350
17
0
DICTIONARY
5
D
100
AcDbDictionary
0
DICTIONARY
5
1A
330
C
100
AcDbDictionary
0
DICTIONARY
5
17
100
AcDbDictionary
0
ENDSEC
0
EOF
